<svg xmlns="http://www.w3.org/2000/svg" viewBox="0 0 880 948" role="img" aria-labelledby="title desc" font-family="Apple SD Gothic Neo, Noto Sans KR, Malgun Gothic, Segoe UI, sans-serif">
  <title id="title">경력, 기술, 자격</title>
  <desc id="desc">기간 없이 적은 경력. 기술은 에이전트의 MCP, GraphRAG, Rust, Python, 레이크하우스의 Iceberg, Spark, Kafka, ClickHouse, 플랫폼의 Kubernetes, OpenTelemetry, Airflow, Go. 자격은 AWS Solutions Architect, Certified ScrumMaster, Certified Kubernetes Administrator.</desc>
  <rect width="880" height="948" rx="22" fill="#f4efe6"/>
  <rect width="880" height="6" fill="#d4531b"/>
  <rect y="6" width="880" height="2" fill="#1c1915"/>
  <path d="M24 40 V22 H42" fill="none" stroke="#d4531b" stroke-width="1.6"/>
  <path d="M856 40 V22 H838" fill="none" stroke="#d4531b" stroke-width="1.6"/>
  <path d="M36 906 V924 H54" fill="none" stroke="#d4531b" stroke-width="1.6"/>
  <path d="M844 906 V924 H826" fill="none" stroke="#d4531b" stroke-width="1.6"/>

  <text x="36" y="52" fill="#8a8176" font-size="13" font-weight="700" letter-spacing="2">경력</text>
  <rect x="78" y="45" width="26" height="3" rx="1.5" fill="#d4531b"/>
  <line x1="47" y1="96" x2="47" y2="424" stroke="#e0d5c6" stroke-width="2"/>
  <line x1="47" y1="96" x2="47" y2="140" stroke="#d4531b" stroke-width="2"/>

  <circle cx="47" cy="96" r="12" fill="#f6d9cc"/>
  <circle cx="47" cy="96" r="5.5" fill="#d4531b"/>
  <text x="76" y="86" fill="#8a8176" font-size="13">Senior Researcher</text>
  <text x="76" y="110" fill="#1c1915" font-size="20" font-weight="700">Hyundai Motor Company</text>
  <line x1="360" y1="104" x2="778" y2="104" stroke="#efd2c4" stroke-width="1"/>
  <rect x="786" y="84" width="52" height="40" rx="12" fill="#d4531b"/>
  <text x="812" y="109" text-anchor="middle" fill="#fffdf8" font-size="13" font-weight="700">HMC</text>

  <circle cx="47" cy="172" r="6.5" fill="#fffdf8" stroke="#1c1915" stroke-width="2"/>
  <circle cx="47" cy="172" r="2.3" fill="#1c1915"/>
  <text x="76" y="158" fill="#8a8176" font-size="13">Senior Engineering Manager</text>
  <text x="76" y="182" fill="#1c1915" font-size="20" font-weight="700">KT</text>
  <text x="76" y="204" fill="#6f675e" font-size="14">Giga Genie AI Platform</text>
  <line x1="120" y1="176" x2="778" y2="176" stroke="#e7ddd0" stroke-width="1"/>
  <rect x="786" y="156" width="52" height="40" rx="12" fill="#fffdf8" stroke="#e4d9c8"/>
  <text x="812" y="181" text-anchor="middle" fill="#d4531b" font-size="13" font-weight="700">KT</text>

  <circle cx="47" cy="262" r="6.5" fill="#fffdf8" stroke="#1c1915" stroke-width="2"/>
  <circle cx="47" cy="262" r="2.3" fill="#1c1915"/>
  <text x="76" y="252" fill="#8a8176" font-size="13">Software Engineer</text>
  <text x="76" y="276" fill="#1c1915" font-size="20" font-weight="700">Coupang</text>
  <line x1="190" y1="270" x2="778" y2="270" stroke="#e7ddd0" stroke-width="1"/>
  <rect x="786" y="250" width="52" height="40" rx="12" fill="#fffdf8" stroke="#e4d9c8"/>
  <text x="812" y="275" text-anchor="middle" fill="#d4531b" font-size="13" font-weight="700">CP</text>

  <circle cx="47" cy="338" r="6.5" fill="#fffdf8" stroke="#1c1915" stroke-width="2"/>
  <circle cx="47" cy="338" r="2.3" fill="#1c1915"/>
  <text x="76" y="324" fill="#8a8176" font-size="13">Senior Application Architect</text>
  <text x="76" y="348" fill="#1c1915" font-size="20" font-weight="700">KT</text>
  <text x="76" y="370" fill="#6f675e" font-size="14">GiGA IoT 플랫폼 · Giga Genie 개발자 포털</text>
  <line x1="470" y1="342" x2="778" y2="342" stroke="#e7ddd0" stroke-width="1"/>
  <rect x="786" y="322" width="52" height="40" rx="12" fill="#fffdf8" stroke="#e4d9c8"/>
  <text x="812" y="347" text-anchor="middle" fill="#d4531b" font-size="13" font-weight="700">KT</text>

  <circle cx="47" cy="424" r="6.5" fill="#fffdf8" stroke="#1c1915" stroke-width="2"/>
  <circle cx="47" cy="424" r="2.3" fill="#1c1915"/>
  <text x="76" y="418" fill="#8a8176" font-size="13">Senior Researcher</text>
  <text x="76" y="442" fill="#1c1915" font-size="20" font-weight="700">Hancom</text>
  <line x1="190" y1="436" x2="778" y2="436" stroke="#e7ddd0" stroke-width="1"/>
  <rect x="786" y="416" width="52" height="40" rx="12" fill="#fffdf8" stroke="#e4d9c8"/>
  <text x="812" y="441" text-anchor="middle" fill="#d4531b" font-size="13" font-weight="700">HC</text>

  <text x="36" y="502" fill="#8a8176" font-size="13" font-weight="700" letter-spacing="2">기술</text>
  <rect x="78" y="495" width="26" height="3" rx="1.5" fill="#d4531b"/>

  <rect x="28" y="520" width="264" height="188" rx="16" fill="#fffdf8" stroke="#e4d9c8"/>
  <rect x="308" y="520" width="264" height="188" rx="16" fill="#fffdf8" stroke="#e4d9c8"/>
  <rect x="588" y="520" width="264" height="188" rx="16" fill="#fffdf8" stroke="#e4d9c8"/>
  <rect x="28" y="520" width="264" height="6" rx="3" fill="#d4531b"/>
  <rect x="308" y="520" width="264" height="6" rx="3" fill="#0e7c78"/>
  <rect x="588" y="520" width="264" height="6" rx="3" fill="#2a5bd7"/>
  <rect x="48" y="520" width="224" height="6" fill="#d4531b"/>
  <rect x="328" y="520" width="224" height="6" fill="#0e7c78"/>
  <rect x="608" y="520" width="224" height="6" fill="#2a5bd7"/>

  <text x="46" y="554" fill="#d4531b" font-size="13" font-weight="700">에이전트</text>
  <text x="326" y="554" fill="#0e7c78" font-size="13" font-weight="700">레이크하우스</text>
  <text x="606" y="554" fill="#2a5bd7" font-size="13" font-weight="700">플랫폼</text>

  <rect x="46" y="570" width="22" height="22" rx="7" fill="#fde8df"/>
  <rect x="46" y="602" width="22" height="22" rx="7" fill="#fde8df"/>
  <rect x="46" y="634" width="22" height="22" rx="7" fill="#fde8df"/>
  <rect x="46" y="666" width="22" height="22" rx="7" fill="#fde8df"/>
  <rect x="326" y="570" width="22" height="22" rx="7" fill="#e6f3f2"/>
  <rect x="326" y="602" width="22" height="22" rx="7" fill="#e6f3f2"/>
  <rect x="326" y="634" width="22" height="22" rx="7" fill="#e6f3f2"/>
  <rect x="326" y="666" width="22" height="22" rx="7" fill="#e6f3f2"/>
  <rect x="606" y="570" width="22" height="22" rx="7" fill="#e8eefb"/>
  <rect x="606" y="602" width="22" height="22" rx="7" fill="#e8eefb"/>
  <rect x="606" y="634" width="22" height="22" rx="7" fill="#e8eefb"/>
  <rect x="606" y="666" width="22" height="22" rx="7" fill="#e8eefb"/>

  <g transform="translate(57,581)" stroke="#d4531b" fill="none" stroke-width="1.4" stroke-linecap="round">
    <circle r="2.1" fill="#d4531b" stroke="none"/>
    <circle cx="-6.2" cy="-4.6" r="1.6"/>
    <circle cx="6" cy="-4" r="1.6"/>
    <circle cx="5.2" cy="5.6" r="1.6"/>
    <line x1="-4.8" y1="-3.8" x2="-1.8" y2="-1.1"/>
    <line x1="4.6" y1="-3.2" x2="1.8" y2="-0.8"/>
    <line x1="4.2" y1="4.4" x2="1.6" y2="1.3"/>
  </g>
  <g transform="translate(57,613)" stroke="#d4531b" fill="#d4531b" stroke-width="1.4" stroke-linecap="round">
    <line x1="-5" y1="-4" x2="4" y2="-5" stroke-width="1.2"/>
    <line x1="-5" y1="-4" x2="-4" y2="4" stroke-width="1.2"/>
    <line x1="4" y1="-5" x2="5" y2="4" stroke-width="1.2"/>
    <line x1="-4" y1="4" x2="5" y2="4" stroke-width="1.2"/>
    <circle cx="-5" cy="-4" r="1.7"/>
    <circle cx="4" cy="-5" r="1.7"/>
    <circle cx="-4" cy="4" r="1.7"/>
    <circle cx="5" cy="4" r="2.2" fill="none"/>
  </g>
  <g transform="translate(57,645)" stroke="#d4531b" stroke-width="1.8" stroke-linecap="round">
    <line x1="5.4" y1="0" x2="8.2" y2="0"/>
    <line x1="3.82" y1="3.82" x2="5.8" y2="5.8"/>
    <line x1="0" y1="5.4" x2="0" y2="8.2"/>
    <line x1="-3.82" y1="3.82" x2="-5.8" y2="5.8"/>
    <line x1="-5.4" y1="0" x2="-8.2" y2="0"/>
    <line x1="-3.82" y1="-3.82" x2="-5.8" y2="-5.8"/>
    <line x1="0" y1="-5.4" x2="0" y2="-8.2"/>
    <line x1="3.82" y1="-3.82" x2="5.8" y2="-5.8"/>
    <circle r="2.7" fill="none"/>
    <circle r="1.05" fill="#d4531b" stroke="none"/>
  </g>
  <g transform="translate(57,677)">
    <circle cx="-2" cy="-1.8" r="3.5" fill="#d4531b"/>
    <circle cx="2.3" cy="2.2" r="3.5" fill="none" stroke="#d4531b" stroke-width="1.5"/>
    <circle cx="-0.9" cy="-2.7" r="0.75" fill="#fffdf8"/>
    <circle cx="1.4" cy="3.1" r="0.75" fill="#d4531b"/>
  </g>

  <g transform="translate(337,581)">
    <polygon points="0,-7.5 6.6,2 -6.6,2" fill="#0e7c78"/>
    <polygon points="-7.2,3.2 7.2,3.2 5.4,8 -5.4,8" fill="#8fc4c0"/>
  </g>
  <path d="M337 594.4 L338.6 600.8 L345.2 599.6 L339.6 603.6 L341.6 610.4 L337 605.8 L332.4 610.4 L334.4 603.6 L328.8 599.6 L335.4 600.8 Z" fill="#0e7c78" transform="translate(0,8)"/>
  <g transform="translate(337,645)" fill="#0e7c78" stroke="#0e7c78" stroke-width="1.6" stroke-linecap="round">
    <circle cx="-6" cy="-5" r="1.25"/>
    <circle cx="-6" cy="0" r="1.25"/>
    <circle cx="-6" cy="5" r="1.25"/>
    <line x1="-3.6" y1="-5" x2="7" y2="-5" fill="none"/>
    <line x1="-3.6" y1="0" x2="4.6" y2="0" fill="none"/>
    <line x1="-3.6" y1="5" x2="7.4" y2="5" fill="none"/>
  </g>
  <g transform="translate(337,677)" fill="#0e7c78">
    <rect x="-7" y="-1" width="3.3" height="8" rx="0.7"/>
    <rect x="-1.6" y="-7" width="3.3" height="14" rx="0.7"/>
    <rect x="3.8" y="-3.2" width="3.3" height="10.2" rx="0.7"/>
  </g>

  <g transform="translate(617,581) scale(0.52)" fill="none" stroke="#2a5bd7" stroke-width="1.7" stroke-linecap="round">
    <line x1="0" y1="-5.2" x2="0" y2="-12.2"/>
    <circle cx="0" cy="-15.5" r="2.15" fill="#2a5bd7" stroke="none"/>
    <line x1="4.07" y1="-3.24" x2="9.54" y2="-7.61"/>
    <circle cx="12.12" cy="-9.66" r="2.15" fill="#2a5bd7" stroke="none"/>
    <line x1="5.07" y1="1.16" x2="11.89" y2="2.71"/>
    <circle cx="15.11" cy="3.45" r="2.15" fill="#2a5bd7" stroke="none"/>
    <line x1="2.26" y1="4.69" x2="5.29" y2="10.99"/>
    <circle cx="6.73" cy="13.97" r="2.15" fill="#2a5bd7" stroke="none"/>
    <line x1="-2.26" y1="4.69" x2="-5.29" y2="10.99"/>
    <circle cx="-6.73" cy="13.97" r="2.15" fill="#2a5bd7" stroke="none"/>
    <line x1="-5.07" y1="1.16" x2="-11.89" y2="2.71"/>
    <circle cx="-15.11" cy="3.45" r="2.15" fill="#2a5bd7" stroke="none"/>
    <line x1="-4.07" y1="-3.24" x2="-9.54" y2="-7.61"/>
    <circle cx="-12.12" cy="-9.66" r="2.15" fill="#2a5bd7" stroke="none"/>
    <circle r="3.3" fill="#2a5bd7" stroke="none"/>
    <circle r="1.45" fill="#e8eefb" stroke="none"/>
  </g>
  <g transform="translate(617,613)" fill="none" stroke="#2a5bd7" stroke-width="1.5" stroke-linecap="round">
    <circle cx="-2" cy="0" r="3.1"/>
    <circle cx="-2" cy="0" r="1.15" fill="#2a5bd7" stroke="none"/>
    <path d="M2.4,-3.5 a5.2 5.2 0 0 1 0 7"/>
    <path d="M5,-5.4 a8.2 8.2 0 0 1 0 10.8"/>
  </g>
  <g transform="translate(617,645)">
    <ellipse cx="0" cy="-3.5" rx="2.05" ry="3.5" fill="#2a5bd7"/>
    <ellipse cx="0" cy="-3.5" rx="2.05" ry="3.5" fill="#2a5bd7" transform="rotate(120)"/>
    <ellipse cx="0" cy="-3.5" rx="2.05" ry="3.5" fill="#2a5bd7" transform="rotate(240)"/>
    <circle r="1.55" fill="#fffdf8"/>
  </g>
  <g transform="translate(617,677)">
    <ellipse cx="-3.1" cy="-4.5" rx="1.7" ry="2.2" fill="#2a5bd7"/>
    <ellipse cx="3.1" cy="-4.5" rx="1.7" ry="2.2" fill="#2a5bd7"/>
    <ellipse cx="0" cy="1" rx="5" ry="4.4" fill="#2a5bd7"/>
    <circle cx="-1.7" cy="0.2" r="0.7" fill="#fffdf8"/>
    <circle cx="1.7" cy="0.2" r="0.7" fill="#fffdf8"/>
    <rect x="-1.55" y="2.4" width="1.3" height="2.4" rx="0.3" fill="#fffdf8"/>
    <rect x="0.25" y="2.4" width="1.3" height="2.4" rx="0.3" fill="#fffdf8"/>
  </g>

  <text x="76" y="586" fill="#1c1915" font-size="16">MCP</text>
  <text x="76" y="618" fill="#1c1915" font-size="16">GraphRAG</text>
  <text x="76" y="650" fill="#1c1915" font-size="16">Rust</text>
  <text x="76" y="682" fill="#1c1915" font-size="16">Python</text>
  <text x="356" y="586" fill="#1c1915" font-size="16">Iceberg</text>
  <text x="356" y="618" fill="#1c1915" font-size="16">Spark</text>
  <text x="356" y="650" fill="#1c1915" font-size="16">Kafka</text>
  <text x="356" y="682" fill="#1c1915" font-size="16">ClickHouse</text>
  <text x="636" y="586" fill="#1c1915" font-size="16">Kubernetes</text>
  <text x="636" y="618" fill="#1c1915" font-size="16">OpenTelemetry</text>
  <text x="636" y="650" fill="#1c1915" font-size="16">Airflow</text>
  <text x="636" y="682" fill="#1c1915" font-size="16">Go</text>

  <text x="36" y="742" fill="#8a8176" font-size="13" font-weight="700" letter-spacing="2">자격</text>
  <rect x="78" y="735" width="26" height="3" rx="1.5" fill="#d4531b"/>

  <rect x="28" y="758" width="264" height="120" rx="16" fill="#fffdf8" stroke="#e4d9c8"/>
  <rect x="308" y="758" width="264" height="120" rx="16" fill="#fffdf8" stroke="#e4d9c8"/>
  <rect x="588" y="758" width="264" height="120" rx="16" fill="#fffdf8" stroke="#e4d9c8"/>
  <rect x="28" y="758" width="78" height="120" rx="16" fill="#232f3e"/>
  <rect x="70" y="758" width="36" height="120" fill="#232f3e"/>
  <rect x="308" y="758" width="78" height="120" rx="16" fill="#1f4e9a"/>
  <rect x="350" y="758" width="36" height="120" fill="#1f4e9a"/>
  <rect x="588" y="758" width="78" height="120" rx="16" fill="#326ce5"/>
  <rect x="630" y="758" width="36" height="120" fill="#326ce5"/>
  <rect x="28" y="758" width="264" height="120" rx="16" fill="none" stroke="#e4d9c8"/>
  <rect x="308" y="758" width="264" height="120" rx="16" fill="none" stroke="#e4d9c8"/>
  <rect x="588" y="758" width="264" height="120" rx="16" fill="none" stroke="#e4d9c8"/>

  <g transform="translate(67,818)">
    <text y="-4" text-anchor="middle" fill="#ff9900" font-size="15" font-weight="700" font-family="Segoe UI, sans-serif">aws</text>
    <path d="M-12,6 C-6,14 6,14 12,5" fill="none" stroke="#ff9900" stroke-width="2" stroke-linecap="round"/>
    <path d="M7,1.5 L13,4.2 L8.2,8.2" fill="none" stroke="#ff9900" stroke-width="2" stroke-linecap="round" stroke-linejoin="round"/>
  </g>
  <g transform="translate(347,810)" fill="#fff">
    <circle cx="-7.2" cy="-9" r="2.5"/>
    <ellipse cx="-7.2" cy="-3.4" rx="3.7" ry="2.7"/>
    <circle cx="7.2" cy="-9" r="2.5"/>
    <ellipse cx="7.2" cy="-3.4" rx="3.7" ry="2.7"/>
    <circle cx="0" cy="-6" r="3"/>
    <ellipse cx="0" cy="0.6" rx="4.3" ry="3.1"/>
    <text y="16" text-anchor="middle" fill="#fff" font-size="12" font-weight="700" font-family="Segoe UI, sans-serif">CSM</text>
  </g>
  <g transform="translate(627,818) scale(1.32)" fill="none" stroke="#fff" stroke-width="1.7" stroke-linecap="round">
    <line x1="0" y1="-5.2" x2="0" y2="-12.2"/>
    <circle cx="0" cy="-15.5" r="2.15" fill="#fff" stroke="none"/>
    <line x1="4.07" y1="-3.24" x2="9.54" y2="-7.61"/>
    <circle cx="12.12" cy="-9.66" r="2.15" fill="#fff" stroke="none"/>
    <line x1="5.07" y1="1.16" x2="11.89" y2="2.71"/>
    <circle cx="15.11" cy="3.45" r="2.15" fill="#fff" stroke="none"/>
    <line x1="2.26" y1="4.69" x2="5.29" y2="10.99"/>
    <circle cx="6.73" cy="13.97" r="2.15" fill="#fff" stroke="none"/>
    <line x1="-2.26" y1="4.69" x2="-5.29" y2="10.99"/>
    <circle cx="-6.73" cy="13.97" r="2.15" fill="#fff" stroke="none"/>
    <line x1="-5.07" y1="1.16" x2="-11.89" y2="2.71"/>
    <circle cx="-15.11" cy="3.45" r="2.15" fill="#fff" stroke="none"/>
    <line x1="-4.07" y1="-3.24" x2="-9.54" y2="-7.61"/>
    <circle cx="-12.12" cy="-9.66" r="2.15" fill="#fff" stroke="none"/>
    <circle r="3.4" fill="#fff" stroke="none"/>
    <circle r="1.5" fill="#326ce5" stroke="none"/>
  </g>

  <text x="122" y="806" fill="#1c1915" font-size="18" font-weight="700">AWS</text>
  <text x="122" y="830" fill="#6f675e" font-size="14">Solutions Architect</text>
  <text x="402" y="806" fill="#1c1915" font-size="18" font-weight="700">ScrumMaster</text>
  <text x="402" y="830" fill="#6f675e" font-size="14">Scrum Alliance</text>
  <text x="682" y="806" fill="#1c1915" font-size="18" font-weight="700">Kubernetes</text>
  <text x="682" y="830" fill="#6f675e" font-size="14">Administrator</text>
</svg>
